<?xml version="1.0" encoding="utf-8"?>
<svg xmlns="http://www.w3.org/2000/svg" width="1200" height="420" viewBox="0 0 1200 420" role="img" aria-labelledby="title desc">
  <title id="title">Voiccce</title>
  <desc id="desc">Minimal bat mascot with sound waves and the Voiccce spoken summaries tagline.</desc>
  <rect width="1200" height="420" rx="0" fill="#fff"/>
  <g transform="translate(112 98) scale(12)" fill="none" stroke="#000" stroke-width="0.72" stroke-linecap="round" stroke-linejoin="round">
    <path d="M2.4 13.6c1.9-2.4 4.1-3.5 6.4-3.4l1-2.2 1.2 1.5h1.6L13.8 8l1 2.2c2.3-.1 4.5 1 6.4 3.4-1.8 0-3.2.5-4.4 1.5-1.4-.8-2.8-1-4.2-.7l-.8 2-.8-2c-1.4-.3-2.8-.1-4.2.7-1.2-1-2.6-1.5-4.4-1.5z"/>
    <path d="M15.85 9.10 C15.75 8.72 15.48 8.40 15.12 8.23" stroke-width="0.52"/>
    <path d="M16.82 8.84 C16.64 8.17 16.17 7.61 15.54 7.32" stroke-width="0.52"/>
    <path d="M17.79 8.58 C17.53 7.63 16.86 6.83 15.97 6.41" stroke-width="0.52"/>
  </g>
  <g transform="translate(112 98) scale(12)">
    <circle cx="10.95" cy="11.25" r="0.24" fill="#000"/>
    <circle cx="12.65" cy="11.25" r="0.24" fill="#000"/>
  </g>

  <text x="430" y="160" fill="#000" font-family="-apple-system, BlinkMacSystemFont, Segoe UI, sans-serif" font-size="92" font-weight="760" letter-spacing="0">Voiccce</text>
  <text x="435" y="215" fill="#000" font-family="-apple-system, BlinkMacSystemFont, Segoe UI, sans-serif" font-size="28" font-weight="500" letter-spacing="0">Human-like spoken summaries for AI coding agents.</text>
  <text x="435" y="260" fill="#000" font-family="-apple-system, BlinkMacSystemFont, Segoe UI, sans-serif" font-size="20" font-weight="420" letter-spacing="0">Hear what changed, what failed, and when Claude Code, Codex, or pi needs you.</text>

  <g fill="none" stroke="#000" stroke-width="2" stroke-linejoin="round">
    <rect x="435" y="305" width="132" height="34" rx="17"/>
    <rect x="581" y="305" width="82" height="34" rx="17"/>
    <rect x="677" y="305" width="44" height="34" rx="17"/>
  </g>
  <g fill="#000" font-family="-apple-system, BlinkMacSystemFont, Segoe UI, sans-serif" font-size="16" font-weight="600" letter-spacing="0" text-anchor="middle" dominant-baseline="middle">
    <text x="501" y="322">Claude Code</text>
    <text x="622" y="322">Codex</text>
    <text x="699" y="322">pi</text>
  </g>
</svg>
