<?xml version="1.0" encoding="utf-8"?>
<svg xmlns="http://www.w3.org/2000/svg" width="1280" height="640" viewBox="0 0 1280 640" role="img" aria-labelledby="title desc">
  <title id="title">Voiccce GitHub social preview</title>
  <desc id="desc">Black and white Voiccce social preview with bat mascot and spoken summaries copy.</desc>
  <rect width="1280" height="640" fill="#fff"/>
  <rect x="48" y="48" width="1184" height="544" rx="36" fill="#fff" stroke="#000" stroke-width="4"/>

  <text x="110" y="230" fill="#000" font-family="-apple-system, BlinkMacSystemFont, Segoe UI, sans-serif" font-size="116" font-weight="780" letter-spacing="0">Voiccce</text>
  <text x="116" y="296" fill="#000" font-family="-apple-system, BlinkMacSystemFont, Segoe UI, sans-serif" font-size="34" font-weight="520" letter-spacing="0">Human-like spoken summaries for AI agents</text>
  <text x="118" y="350" fill="#000" font-family="-apple-system, BlinkMacSystemFont, Segoe UI, sans-serif" font-size="24" font-weight="420" letter-spacing="0">Explains what changed, what failed, and what needs you.</text>
  <text x="118" y="388" fill="#000" font-family="-apple-system, BlinkMacSystemFont, Segoe UI, sans-serif" font-size="24" font-weight="420" letter-spacing="0">Built for Claude Code, Codex, and pi.</text>

  <g fill="none" stroke="#000" stroke-width="3" stroke-linejoin="round">
    <rect x="118" y="452" width="168" height="42" rx="21"/>
    <rect x="304" y="452" width="108" height="42" rx="21"/>
    <rect x="430" y="452" width="60" height="42" rx="21"/>
  </g>
  <g fill="#000" font-family="-apple-system, BlinkMacSystemFont, Segoe UI, sans-serif" font-size="20" font-weight="650" letter-spacing="0" text-anchor="middle" dominant-baseline="middle">
    <text x="202" y="473">Claude Code</text>
    <text x="358" y="473">Codex</text>
    <text x="460" y="473">pi</text>
  </g>

  <g transform="translate(755 194) scale(17.5)" fill="none" stroke="#000" stroke-width="0.72" stroke-linecap="round" stroke-linejoin="round">
    <path d="M2.4 13.6c1.9-2.4 4.1-3.5 6.4-3.4l1-2.2 1.2 1.5h1.6L13.8 8l1 2.2c2.3-.1 4.5 1 6.4 3.4-1.8 0-3.2.5-4.4 1.5-1.4-.8-2.8-1-4.2-.7l-.8 2-.8-2c-1.4-.3-2.8-.1-4.2.7-1.2-1-2.6-1.5-4.4-1.5z"/>
    <path d="M15.85 9.10 C15.75 8.72 15.48 8.40 15.12 8.23" stroke-width="0.52"/>
    <path d="M16.82 8.84 C16.64 8.17 16.17 7.61 15.54 7.32" stroke-width="0.52"/>
    <path d="M17.79 8.58 C17.53 7.63 16.86 6.83 15.97 6.41" stroke-width="0.52"/>
  </g>
  <g transform="translate(755 194) scale(17.5)">
    <circle cx="10.95" cy="11.25" r="0.24" fill="#000"/>
    <circle cx="12.65" cy="11.25" r="0.24" fill="#000"/>
  </g>
</svg>
