<?xml version="1.0" encoding="utf-8"?>
<svg xmlns="http://www.w3.org/2000/svg" width="22" height="22" viewBox="1 2.6 22 22">
  <g fill="none" stroke="#000" stroke-width="0.72" stroke-linecap="round" stroke-linejoin="round">
    <path d="M2.4 13.6c1.9-2.4 4.1-3.5 6.4-3.4l1-2.2 1.2 1.5h1.6L13.8 8l1 2.2c2.3-.1 4.5 1 6.4 3.4-1.8 0-3.2.5-4.4 1.5-1.4-.8-2.8-1-4.2-.7l-.8 2-.8-2c-1.4-.3-2.8-.1-4.2.7-1.2-1-2.6-1.5-4.4-1.5z"/>
    <path d="M4.3 17.4 19.8 6.5" stroke-width="1.05"/>
  </g>
  <circle cx="10.95" cy="11.25" r="0.24" fill="#000"/>
  <circle cx="12.65" cy="11.25" r="0.24" fill="#000"/>
</svg>
